# xmcd CD database file
#
# Track frame offsets:
#	150
#	15885
#	37508
#	59193
#	79040
#	97963
#	119250
#	151608
#	166428
#	187363
#
# Disc length: 2669 seconds
#
# Revision: 2
# Processed by: cddbd v1.5.2PL0 Copyright (c) Steve Scherf et al.
# Submitted via: CDex 1.51
#
DISCID=6f0a6b0a
DTITLE=Lee Konitz - Medium rare
DYEAR=1986
DGENRE=Jazz
TTITLE0=Hi Beck
TTITLE1=Oncle dom tom
TTITLE2=Medium rare
TTITLE3=Chick came around
TTITLE4=Monk's mood
TTITLE5=Trois temps pour Laurent
TTITLE6=Ezz thetic
TTITLE7=Blue Label
TTITLE8=Kary's trance
TTITLE9=Crystal silence
EXTD=YEAR: 1986
EXTT0=
EXTT1=
EXTT2=
EXTT3=
EXTT4=
EXTT5=
EXTT6=
EXTT7=
EXTT8=
EXTT9=
PLAYORDER=
